# xmcd CD database file generated by freedbAccess_ocx
#
# Track frame offsets:
#       150
#       17419
#       30339
#       42020
#       54503
#       67140
#       78143
#       91944
#       105478
#       119544
#       137480
#       152826
#       164324
#       179123
#       195438
#       204458
#       221770
#       236938
#       252308
#       264333
#       281116
#       294619
#       307206
#
# Disc length: 4351 seconds
#
# Revision: 0
# Processed by: cddbd v1.4PL0 Copyright (c) Steve Scherf et al.
# Submitted via: CDnGo 2.00
#
DISCID=4e10fd17
DTITLE=Petra Cernocka - Se mnou si pisen broukej
DYEAR=1997
DGENRE=Country
TTITLE0=Koukej se mno si pisen broukej
TTITLE1=Zpivani v desti
TTITLE2=Ovecka
TTITLE3=Hollywood
TTITLE4=Saxana
TTITLE5=Hadej mamo
TTITLE6=Poustim po vode prouti
TTITLE7=Pisen na pet radku
TTITLE8=Nakladak
TTITLE9=Jedou vozy
TTITLE10=Setkani
TTITLE11=Povim sluvek par
TTITLE12=Adam
TTITLE13=Vubec nejsem zvlastni
TTITLE14=Strevicky v rose
TTITLE15=Letni noc
TTITLE16=Vrat mi zpet muj smich
TTITLE17=Den na letnich trzistich
TTITLE18=Chci byt prave s nim
TTITLE19=Ten kluk uz davno se mnou neni
TTITLE20=Stokrat
TTITLE21=Mam rada ruze
TTITLE22=Mississippi
EXTD=
EXTT0=
EXTT1=
EXTT2=
EXTT3=
EXTT4=
EXTT5=
EXTT6=
EXTT7=
EXTT8=
EXTT9=
EXTT10=
EXTT11=
EXTT12=
EXTT13=
EXTT14=
EXTT15=
EXTT16=
EXTT17=
EXTT18=
EXTT19=
EXTT20=
EXTT21=
EXTT22=
PLAYORDER=
